<svg width="46" height="46" viewBox="0 0 46 46" fill="none" xmlns="http://www.w3.org/2000/svg"><g clip-path="url(#clip0)"><path d="M45.62 23.418a1.318 1.318 0 00-.627-1.12L40.42 19.48l4.578-2.85a1.318 1.318 0 00.003-2.236L23.82 1.122a1.318 1.318 0 00-1.4 0L1.238 14.393a1.319 1.319 0 00.004 2.237l4.546 2.83-4.548 2.843a1.318 1.318 0 00.002 2.237l4.546 2.83-4.548 2.843a1.319 1.319 0 00-.002 2.235L22.42 45.719a1.318 1.318 0 001.4 0L45 32.448a1.318 1.318 0 00-.008-2.24L40.42 27.39l4.578-2.85c.388-.24.623-.665.622-1.121zM4.427 15.507L23.12 3.795l18.692 11.712L23.12 27.14 4.427 15.507zM41.804 31.34L23.12 43.047 4.424 31.332l3.857-2.41 14.142 8.802a1.317 1.317 0 001.394 0l14.103-8.778 3.884 2.394zM23.12 35.051L4.43 23.418l3.851-2.407 14.142 8.802a1.316 1.316 0 001.394 0l14.103-8.777 3.878 2.39L23.12 35.051z" fill="#60E1CB"/></g><defs><clipPath id="clip0"><path fill="#fff" transform="translate(.62 .92)" d="M0 0h45v45H0z"/></clipPath></defs></svg>