<svg width="50" height="49" viewBox="0 0 50 49" fill="none" xmlns="http://www.w3.org/2000/svg"><g clip-path="url(#clip0)" fill="#60E1CB"><path d="M26.237 23.29a.99.99 0 00-1.382 0 .944.944 0 000 1.353.993.993 0 001.382 0 .944.944 0 000-1.354zm12.428-12.182c-1.908-1.87-4.997-1.87-6.906 0a4.724 4.724 0 000 6.768c1.905 1.864 5.002 1.865 6.906 0a4.716 4.716 0 000-6.768zm-1.381 5.414a2.976 2.976 0 01-4.143 0 2.835 2.835 0 010-4.06 2.97 2.97 0 014.143 0 2.83 2.83 0 010 4.06z"/><path d="M49.714.28A.984.984 0 0048.99 0c-.221.008-5.478.216-11.728 2.38-5.008 1.733-9.182 4.214-12.406 7.374a36.713 36.713 0 00-2.099 2.24c-3.188-1.84-5.743-1.263-7.358-.416-3.719 1.95-6.02 7.246-6.02 11.034 0 .387.237.736.602.884a.992.992 0 001.064-.207c1.962-1.922 4.38-1.802 5.171-1.7l.342.335a33.218 33.218 0 00-1.613 4.648c-.143.55-.095 1.13.118 1.662a9.249 9.249 0 00-2.637 1.822c-2.514 2.464-3.024 8.468-3.045 8.722a.947.947 0 00.283.752.987.987 0 00.768.278c.26-.02 6.386-.52 8.9-2.984a9.065 9.065 0 001.859-2.584 2.81 2.81 0 001.697.115c1.548-.39 3.14-.92 4.742-1.58l.342.335c.104.774.227 3.145-1.734 5.067a.943.943 0 00-.212 1.043c.151.357.507.59.902.59 3.865 0 9.27-2.255 11.26-5.9.864-1.582 1.452-4.086-.424-7.21a36.888 36.888 0 002.284-2.057c3.225-3.16 5.756-7.251 7.524-12.158C49.781 6.36 49.991 1.208 50 .99a.947.947 0 00-.285-.71zM11.561 20.553c.606-2.877 2.368-6.034 4.759-7.288 1.597-.838 3.344-.756 5.2.24a38.573 38.573 0 00-4.103 6.555c-.014-.009-.19-.226-.517-.298-.134-.03-2.718-.574-5.34.791zM17.95 35.47c-1.343 1.316-4.493 2.01-6.484 2.294.29-1.952.998-5.038 2.34-6.354.752-.737 1.624-1.296 2.5-1.61l3.287 3.22c-.321.859-.891 1.713-1.643 2.45zm4.452-2.969c-.283.07-.61-.033-.854-.271a7787.626 7787.626 0 00-1.912-1.875l-2.522-2.471c-.244-.24-.35-.56-.278-.837a30.633 30.633 0 011.22-3.655l8.075 7.914a32.144 32.144 0 01-3.73 1.195zm14.063.506c-1.28 2.343-4.501 4.07-7.437 4.664.936-1.726 1.142-3.923.8-5.256-.08-.31-.285-.465-.297-.483a39.655 39.655 0 006.688-4.021c1.017 1.82 1.1 3.53.246 5.096zm2.201-9.718a35.217 35.217 0 01-2.816 2.476 37.653 37.653 0 01-7.785 4.73l-9.182-8.998a36.65 36.65 0 014.826-7.63 34.973 34.973 0 012.527-2.76c2.893-2.835 6.627-5.091 11.1-6.716l8.184 8.02c-1.658 4.384-3.96 8.043-6.854 10.878zm7.556-12.897l-6.826-6.69a44.698 44.698 0 018.57-1.707 42.276 42.276 0 01-1.744 8.397z"/><path d="M23.474 39.53a.99.99 0 00-1.381 0l-2.762 2.708a.944.944 0 000 1.353.991.991 0 001.381 0l2.762-2.708a.944.944 0 000-1.353zM9.663 25.996a.99.99 0 00-1.38 0L5.52 28.702a.944.944 0 000 1.354.99.99 0 001.38 0l2.763-2.707a.944.944 0 000-1.353zm6.905 14.888a.99.99 0 00-1.38 0l-6.616 6.482a.943.943 0 000 1.354.99.99 0 001.381 0l6.615-6.482a.943.943 0 000-1.354zm-7.812 0a.99.99 0 00-1.381 0L.76 47.366a.943.943 0 000 1.354.99.99 0 001.38 0l6.616-6.482a.943.943 0 000-1.354zm-.474-8.121a.99.99 0 00-1.381 0L.287 39.246a.944.944 0 000 1.353.99.99 0 001.38 0l6.615-6.483a.944.944 0 000-1.353zM30.38 19.229a.991.991 0 00-1.382 0l-1.38 1.353a.944.944 0 000 1.353.99.99 0 001.38 0l1.381-1.353a.944.944 0 000-1.354z"/></g><defs><clipPath id="clip0"><path fill="#fff" d="M0 0h50v49H0z"/></clipPath></defs></svg>