<svg width="45" height="46" viewBox="0 0 45 46" fill="none" xmlns="http://www.w3.org/2000/svg"><g clip-path="url(#clip0)"><mask id="a" fill="#fff"><path d="M30.859 28.644a10.135 10.135 0 001.836-5.83c0-5.62-4.574-10.194-10.195-10.194-5.622 0-10.195 4.573-10.195 10.195S16.878 33.01 22.5 33.01a10.14 10.14 0 005.881-1.871l6.653 6.652c.343.343.793.515 1.243.515a1.758 1.758 0 001.243-3l-6.661-6.662zm-15.039-5.83a6.687 6.687 0 016.68-6.679 6.687 6.687 0 016.68 6.68 6.687 6.687 0 01-6.68 6.68 6.687 6.687 0 01-6.68-6.68zM45 21.849v1.758a5.28 5.28 0 01-5.274 5.273h-.885a.56.56 0 00-.318.1 1.757 1.757 0 11-1.988-2.9 4.062 4.062 0 012.306-.715h.885a1.76 1.76 0 001.758-1.758v-1.758a1.76 1.76 0 00-1.758-1.758h-.885c-1.662 0-3.148-1-3.787-2.547l-.01-.026a4.094 4.094 0 01.875-4.48l.627-.627a1.76 1.76 0 000-2.485l-1.244-1.243a1.746 1.746 0 00-1.242-.515c-.47 0-.912.182-1.243.515l-.627.626a4.092 4.092 0 01-4.48.875l-.026-.01a4.092 4.092 0 01-2.547-3.787V5.5a1.76 1.76 0 00-1.758-1.757H21.62A1.76 1.76 0 0019.863 5.5v.886c0 1.662-1 3.148-2.547 3.787l-.023.009c-1.55.644-3.309.3-4.484-.874l-.626-.627a1.745 1.745 0 00-1.243-.514c-.47 0-.91.182-1.243.514L8.454 9.925a1.76 1.76 0 000 2.486l.626.625a4.093 4.093 0 01.876 4.481l-.01.027a4.092 4.092 0 01-3.787 2.546h-.886a1.76 1.76 0 00-1.758 1.758v1.758c0 .97.789 1.758 1.758 1.758h.886c1.661 0 3.148 1 3.787 2.547l.013.031c.64 1.542.296 3.3-.879 4.476l-.626.626a1.746 1.746 0 00-.515 1.243c0 .47.183.91.515 1.243l1.243 1.243a1.76 1.76 0 002.486 0l.626-.627a4.093 4.093 0 014.479-.876l.022.009a4.094 4.094 0 012.553 3.79v.885a1.76 1.76 0 001.758 1.757h1.758a1.76 1.76 0 001.758-1.757v-.886c0-.826.247-1.623.715-2.306a1.757 1.757 0 112.9 1.989.56.56 0 00-.1.317v.886a5.28 5.28 0 01-5.273 5.273H21.62a5.28 5.28 0 01-5.273-5.273v-.886a.587.587 0 00-.374-.537l-.032-.014a.589.589 0 00-.647.115l-.626.627a5.28 5.28 0 01-7.458 0l-1.243-1.243a5.239 5.239 0 01-1.544-3.73c0-1.408.548-2.732 1.544-3.728l.626-.626a.59.59 0 00.116-.646l-.015-.035a.586.586 0 00-.536-.372h-.886A5.28 5.28 0 010 23.606v-1.758a5.28 5.28 0 015.273-5.273h.886a.587.587 0 00.537-.374l.013-.032a.589.589 0 00-.115-.647l-.626-.626a5.28 5.28 0 010-7.457l1.243-1.243a5.24 5.24 0 013.73-1.545 5.24 5.24 0 013.728 1.545l.626.626a.59.59 0 00.647.115l.031-.013a.587.587 0 00.374-.538V5.5A5.28 5.28 0 0121.622.227h1.758A5.28 5.28 0 0128.652 5.5v.886c0 .233.147.444.374.538l.035.014a.587.587 0 00.643-.116l.627-.626A5.237 5.237 0 0134.06 4.65c1.408 0 2.732.548 3.728 1.545l1.243 1.243a5.28 5.28 0 010 7.457l-.626.626a.589.589 0 00-.115.647l.013.032a.588.588 0 00.538.374h.885A5.28 5.28 0 0145 21.848z"/></mask><path d="M30.859 28.644a10.135 10.135 0 001.836-5.83c0-5.62-4.574-10.194-10.195-10.194-5.622 0-10.195 4.573-10.195 10.195S16.878 33.01 22.5 33.01a10.14 10.14 0 005.881-1.871l6.653 6.652c.343.343.793.515 1.243.515a1.758 1.758 0 001.243-3l-6.661-6.662zm-15.039-5.83a6.687 6.687 0 016.68-6.679 6.687 6.687 0 016.68 6.68 6.687 6.687 0 01-6.68 6.68 6.687 6.687 0 01-6.68-6.68zM45 21.849v1.758a5.28 5.28 0 01-5.274 5.273h-.885a.56.56 0 00-.318.1 1.757 1.757 0 11-1.988-2.9 4.062 4.062 0 012.306-.715h.885a1.76 1.76 0 001.758-1.758v-1.758a1.76 1.76 0 00-1.758-1.758h-.885c-1.662 0-3.148-1-3.787-2.547l-.01-.026a4.094 4.094 0 01.875-4.48l.627-.627a1.76 1.76 0 000-2.485l-1.244-1.243a1.746 1.746 0 00-1.242-.515c-.47 0-.912.182-1.243.515l-.627.626a4.092 4.092 0 01-4.48.875l-.026-.01a4.092 4.092 0 01-2.547-3.787V5.5a1.76 1.76 0 00-1.758-1.757H21.62A1.76 1.76 0 0019.863 5.5v.886c0 1.662-1 3.148-2.547 3.787l-.023.009c-1.55.644-3.309.3-4.484-.874l-.626-.627a1.745 1.745 0 00-1.243-.514c-.47 0-.91.182-1.243.514L8.454 9.925a1.76 1.76 0 000 2.486l.626.625a4.093 4.093 0 01.876 4.481l-.01.027a4.092 4.092 0 01-3.787 2.546h-.886a1.76 1.76 0 00-1.758 1.758v1.758c0 .97.789 1.758 1.758 1.758h.886c1.661 0 3.148 1 3.787 2.547l.013.031c.64 1.542.296 3.3-.879 4.476l-.626.626a1.746 1.746 0 00-.515 1.243c0 .47.183.91.515 1.243l1.243 1.243a1.76 1.76 0 002.486 0l.626-.627a4.093 4.093 0 014.479-.876l.022.009a4.094 4.094 0 012.553 3.79v.885a1.76 1.76 0 001.758 1.757h1.758a1.76 1.76 0 001.758-1.757v-.886c0-.826.247-1.623.715-2.306a1.757 1.757 0 112.9 1.989.56.56 0 00-.1.317v.886a5.28 5.28 0 01-5.273 5.273H21.62a5.28 5.28 0 01-5.273-5.273v-.886a.587.587 0 00-.374-.537l-.032-.014a.589.589 0 00-.647.115l-.626.627a5.28 5.28 0 01-7.458 0l-1.243-1.243a5.239 5.239 0 01-1.544-3.73c0-1.408.548-2.732 1.544-3.728l.626-.626a.59.59 0 00.116-.646l-.015-.035a.586.586 0 00-.536-.372h-.886A5.28 5.28 0 010 23.606v-1.758a5.28 5.28 0 015.273-5.273h.886a.587.587 0 00.537-.374l.013-.032a.589.589 0 00-.115-.647l-.626-.626a5.28 5.28 0 010-7.457l1.243-1.243a5.24 5.24 0 013.73-1.545 5.24 5.24 0 013.728 1.545l.626.626a.59.59 0 00.647.115l.031-.013a.587.587 0 00.374-.538V5.5A5.28 5.28 0 0121.622.227h1.758A5.28 5.28 0 0128.652 5.5v.886c0 .233.147.444.374.538l.035.014a.587.587 0 00.643-.116l.627-.626A5.237 5.237 0 0134.06 4.65c1.408 0 2.732.548 3.728 1.545l1.243 1.243a5.28 5.28 0 010 7.457l-.626.626a.589.589 0 00-.115.647l.013.032a.588.588 0 00.538.374h.885A5.28 5.28 0 0145 21.848z" fill="#60E1CB" stroke="#FCFCFE" stroke-width="1.2" mask="url(#a)"/></g><defs><clipPath id="clip0"><path fill="#fff" transform="translate(0 .227)" d="M0 0h45v45H0z"/></clipPath></defs></svg>