<svg width="46" height="39" viewBox="0 0 46 39" fill="none" xmlns="http://www.w3.org/2000/svg"><path d="M44.607 4.071C43.563 1.42 42.437.536 37.937.536c-2.732 0-4.82 2.089-4.82 4.821 0 1.446.803 2.813 1.606 4.259.241.563.643 1.125.884 1.688l.322.642c.723 1.447 1.205 2.491 1.205 4.661 0 .884-.16 1.848-.563 3.214v.08l-2.651 7.956-6.887-19.512c.233-.03.466-.062.7-.095 1.285 0 2.33-1.125 2.33-2.41 0-1.367-1.045-2.412-2.411-2.412h-.161a30.735 30.735 0 01-9.402 0h-.16c-1.367 0-2.411 1.045-2.411 2.411 0 1.286 1.044 2.41 2.33 2.41.27.041.542.078.815.114l3.283 8.324L17.93 28.5 10.696 8.264l.08-.014c1.287-.08 2.331-1.125 2.331-2.41 0-1.367-1.045-2.412-2.41-2.412h-.161a20.751 20.751 0 01-7.715 0h-.16C1.295 3.428.25 4.473.25 5.84c0 1.263 1.009 2.293 2.263 2.405l9.87 27.006c.563 1.527 1.769 2.652 3.376 3.053.402.08.723.161 1.125.161 2.009 0 3.937-1.366 4.58-3.294l4.58-13.661 4.822 13.66c.402 1.126 1.205 1.93 2.09 2.25.803.322 1.687.242 2.49-.16a3.674 3.674 0 002.17-2.33l5.947-17.84c1.366-3.455 1.687-6.509 1.687-8.437V7.366c0-1.125-.16-2.25-.643-3.295zM17.93 6.643c-.483 0-.804-.322-.804-.804 0-.402.321-.803.723-.803 3.295.562 6.51.562 9.884 0 .402 0 .723.401.723.803 0 .482-.321.804-.803.804h-.16c-.479.073-.957.134-1.435.185a1.25 1.25 0 00-.253-.025 29.38 29.38 0 01-6.51 0h-.004c-.4-.045-.8-.099-1.2-.16h-.161zM1.857 5.839c0-.402.322-.803.723-.803 2.733.562 5.465.562 8.197 0 .402 0 .723.401.723.803 0 .482-.321.804-.803.804h-.161c-.333.062-.665.116-.998.162l-.047-.002a19.26 19.26 0 01-.404.06c-1.875.22-3.75.182-5.626-.112l-.157-.028h-.022a21.625 21.625 0 01-.46-.08H2.66c-.482 0-.804-.322-.804-.804zm41.706 2.893c0 1.768-.242 4.66-1.527 7.875l-6.027 17.84a2.296 2.296 0 01-1.366 1.365c-.402.161-.804.242-1.205.08-.483-.16-.965-.642-1.206-1.285l-5.625-15.75a.772.772 0 00-.723-.563.772.772 0 00-.723.563l-5.224 15.75c-.482 1.527-2.17 2.491-3.776 2.09-1.045-.242-1.849-.965-2.25-2.01L4.355 8.51a20.42 20.42 0 002.324.142c.804 0 1.609-.057 2.413-.152l8.194 22.732a.77.77 0 00.723.563.772.772 0 00.723-.563l4.822-14.303a.687.687 0 000-.563l-3.028-7.808a28.53 28.53 0 002.224.094c.868 0 1.76-.048 2.663-.13l7.864 22.067a.77.77 0 00.723.563.772.772 0 00.723-.563l3.375-10.044c.08-.08.08-.08.08-.161.483-1.527.643-2.732.643-3.697 0-2.571-.642-3.857-1.366-5.384l-.321-.642c-.322-.563-.643-1.206-.964-1.768-.724-1.206-1.366-2.41-1.366-3.456 0-2.089 1.687-3.214 3.214-3.214 4.178 0 4.5.804 5.062 2.491.322.804.483 1.688.483 2.652v1.366z" fill="#60E1CB"/></svg>