<svg width="45" height="44" viewBox="0 0 45 44" fill="none" xmlns="http://www.w3.org/2000/svg"><g clip-path="url(#clip0)" fill="#60E1CB"><path d="M39.891 41.375H5.11c-2.817 0-5.11-2.24-5.11-4.995V7.546c0-2.754 2.293-4.995 5.11-4.995h34.78C42.708 2.55 45 4.79 45 7.546V36.38c0 2.754-2.292 4.995-5.109 4.995zM5.11 4.04c-1.978 0-3.587 1.573-3.587 3.507V36.38c0 1.934 1.609 3.508 3.587 3.508h34.78c1.978 0 3.587-1.574 3.587-3.508V7.546c0-1.934-1.61-3.507-3.587-3.507H5.11z"/><path d="M38.133 30.017H26.175a.752.752 0 01-.76-.744c0-.41.34-.744.76-.744h11.957c.42 0 .76.334.76.744 0 .411-.34.744-.76.744zm0 5.379H26.175a.752.752 0 01-.76-.744c0-.41.34-.744.76-.744h11.957c.42 0 .76.333.76.744 0 .41-.34.744-.76.744zm0-16.136H26.175a.752.752 0 01-.76-.744c0-.41.34-.744.76-.744h11.957c.42 0 .76.333.76.744 0 .41-.34.744-.76.744zm0 5.378H26.175a.752.752 0 01-.76-.744c0-.41.34-.744.76-.744h11.957c.42 0 .76.334.76.744 0 .411-.34.744-.76.744zm6.106-12.125H.76a.752.752 0 01-.76-.744c0-.411.34-.744.76-.744h43.48c.42 0 .76.333.76.744 0 .41-.34.744-.76.744zM10.969 9.86C9.663 9.86 8.6 8.823 8.6 7.547c0-1.277 1.062-2.315 2.368-2.315 1.305 0 2.367 1.038 2.367 2.315 0 1.276-1.062 2.315-2.367 2.315zm0-3.141a.838.838 0 00-.846.827c0 .456.38.827.846.827a.838.838 0 00.846-.827.838.838 0 00-.846-.827zM5.486 9.86c-1.305 0-2.367-1.038-2.367-2.314 0-1.277 1.062-2.315 2.367-2.315 1.306 0 2.368 1.038 2.368 2.315 0 1.276-1.062 2.315-2.368 2.315zm0-3.141a.838.838 0 00-.845.827c0 .456.38.827.845.827a.838.838 0 00.847-.827.838.838 0 00-.847-.827zM16.45 9.86c-1.305 0-2.367-1.038-2.367-2.314 0-1.277 1.062-2.315 2.368-2.315 1.305 0 2.367 1.038 2.367 2.315 0 1.276-1.062 2.315-2.367 2.315zm0-3.141a.837.837 0 00-.845.827c0 .456.38.827.846.827a.838.838 0 00.846-.827.838.838 0 00-.846-.827zm3.985 28.677H6.63a.752.752 0 01-.76-.744V18.516c0-.41.34-.744.76-.744h13.805c.42 0 .76.333.76.744v16.136c0 .411-.34.744-.76.744zM7.39 33.908h12.283V19.26H7.39v14.648z"/></g><defs><clipPath id="clip0"><path fill="#fff" d="M0 0h45v44H0z"/></clipPath></defs></svg>