<svg width="46" height="45" viewBox="0 0 46 45" fill="none" xmlns="http://www.w3.org/2000/svg"><g clip-path="url(#clip0)" fill="#60E1CB"><path d="M39.803 5.852h-.534a3.844 3.844 0 00-.992-5.093 3.845 3.845 0 00-5.489.95l-2.772 4.143H6.198a3.554 3.554 0 00-3.55 3.55v22.7a3.555 3.555 0 003.55 3.55h13.79l-1.041 4.377h-2.25a2.661 2.661 0 00-2.657 2.658v.555h-2.773a.879.879 0 000 1.758h23.467a.879.879 0 000-1.758H31.96v-.555a2.661 2.661 0 00-2.658-2.658h-2.25l-1.041-4.377h13.79a3.555 3.555 0 003.551-3.55v-22.7a3.554 3.554 0 00-3.55-3.55zM27.21 21.302c-1.374.963-3.949-.345-6.407.967-.6-3.116-.222-6.047 2.9-6.694a5.594 5.594 0 011.208-.114l3.18 2.359c.461 1.341.288 2.664-.881 3.483zm.886-9.42l2.488 1.846-1.914 2.333-2.252-1.672 1.678-2.507zm6.153-9.196a2.087 2.087 0 012.981-.516 2.087 2.087 0 01.37 3.003l-5.9 7.194-2.626-1.947 5.175-7.734zm-4.046 40.001v.555H15.798v-.555a.9.9 0 01.9-.9h12.605c.496 0 .9.404.9.9zm-4.956-2.658h-4.493l1.042-4.377h2.409l1.042 4.377zm16.349-7.927c0 .988-.805 1.793-1.793 1.793H6.198a1.795 1.795 0 01-1.793-1.793v-4.116h2.512a.879.879 0 000-1.758H4.405V9.402c0-.988.804-1.792 1.793-1.792h22.641l-4.076 6.092c-1.723.015-3.442.615-4.568 1.93-1.532 1.787-1.8 4.597-.8 8.35a.88.88 0 001.457.409c2.272-2.171 5.103.197 7.637-1.854 1.548-1.253 1.914-3.244 1.33-5.106l8.056-9.821h1.928c.988 0 1.792.804 1.792 1.792v16.826H13.948a.879.879 0 000 1.758h27.648v4.116z"/><path d="M10.263 26.245a.878.878 0 10.343 1.722.878.878 0 00-.343-1.722z"/></g><defs><clipPath id="clip0"><path fill="#fff" transform="translate(.5)" d="M0 0h45v45H0z"/></clipPath></defs></svg>