<svg width="45" height="46" viewBox="0 0 45 46" fill="none" xmlns="http://www.w3.org/2000/svg">
<g clip-path="url(#clip0)">
<mask id="path-1-inside-1" fill="white">
<path d="M30.859 28.6442C32.0157 26.9911 32.6951 24.981 32.6951 22.8149C32.6951 17.1934 28.1214 12.6196 22.4998 12.6196C16.8783 12.6196 12.3045 17.1934 12.3045 22.8149C12.3045 28.4369 16.8783 33.0103 22.4998 33.0103C24.6885 33.0103 26.7182 32.3167 28.3813 31.1385L35.0338 37.791C35.3768 38.134 35.8269 38.3057 36.2767 38.3057C36.7264 38.3057 37.1765 38.134 37.5195 37.791C38.2061 37.1044 38.2061 35.9913 37.5195 35.305L30.859 28.6442ZM15.8201 22.8149C15.8201 19.1318 18.8167 16.1353 22.4998 16.1353C26.183 16.1353 29.1795 19.1318 29.1795 22.8149C29.1795 26.4981 26.183 29.4946 22.4998 29.4946C18.8167 29.4946 15.8201 26.4981 15.8201 22.8149ZM44.9998 21.8481V23.606C44.9998 26.5139 42.6343 28.8794 39.7264 28.8794H38.841C38.6981 28.8794 38.5893 28.9333 38.5234 28.9786C37.7227 29.5279 36.6286 29.324 36.0796 28.523C35.5303 27.7227 35.7342 26.6282 36.5349 26.0793C37.2177 25.6113 38.0149 25.3638 38.841 25.3638H39.7264C40.6956 25.3638 41.4842 24.5752 41.4842 23.606V21.8481C41.4842 20.8789 40.6956 20.0903 39.7264 20.0903H38.841C37.1793 20.0903 35.693 19.0902 35.0538 17.5429L35.0431 17.5171C34.4008 15.9701 34.7444 14.2113 35.9193 13.0364L36.5455 12.4105C37.2308 11.7249 37.2308 10.6098 36.5455 9.92455L35.3023 8.68172C34.9703 8.34972 34.5288 8.16673 34.0595 8.16673C33.5898 8.16673 33.1483 8.34938 32.8167 8.68172L32.1904 9.30759C31.0156 10.4824 29.2568 10.8265 27.7097 10.1834L27.6836 10.1728C26.1366 9.53384 25.1365 8.0476 25.1365 6.38592V5.50049C25.1365 4.53129 24.3479 3.74268 23.3787 3.74268H21.6209C20.6517 3.74268 19.8631 4.53129 19.8631 5.50049V6.38592C19.8631 8.0476 18.863 9.53384 17.3156 10.1728L17.2933 10.182C15.7425 10.8261 13.984 10.4824 12.8092 9.30759L12.183 8.68137C11.8513 8.34938 11.4098 8.16673 10.9401 8.16673C10.4708 8.16673 10.0293 8.34938 9.69731 8.68137L8.45414 9.92455C7.76887 10.6098 7.76887 11.7249 8.45414 12.4105L9.08036 13.0364C10.2552 14.2113 10.5989 15.9701 9.95618 17.5175L9.94553 17.5436C9.30661 19.0902 7.82037 20.0903 6.15868 20.0903H5.27325C4.30405 20.0903 3.51544 20.8789 3.51544 21.8481V23.606C3.51544 24.5752 4.30405 25.3638 5.27325 25.3638H6.15868C7.82002 25.3638 9.30661 26.3639 9.94553 27.9112L9.95858 27.9421C10.5989 29.484 10.2552 31.2428 9.08036 32.4177L8.45414 33.0436C8.12215 33.3755 7.9395 33.8171 7.9395 34.2867C7.9395 34.7561 8.12215 35.1976 8.45414 35.5296L9.69731 36.7727C10.3826 37.458 11.4977 37.4583 12.1833 36.7727L12.8092 36.1465C13.9834 34.9727 15.7408 34.6283 17.2875 35.2697L17.3102 35.2789C18.8633 35.9203 19.8631 37.4068 19.8631 39.0682V39.9536C19.8631 40.9228 20.6517 41.7114 21.6209 41.7114H23.3787C24.3479 41.7114 25.1365 40.9228 25.1365 39.9536V39.0682C25.1365 38.2421 25.3841 37.4446 25.8524 36.7621C26.4013 35.9615 27.4955 35.7575 28.2961 36.3068C29.0968 36.8558 29.3007 37.95 28.7514 38.7506C28.7061 38.8165 28.6522 38.9254 28.6522 39.0682V39.9536C28.6522 42.8616 26.2867 45.2271 23.3787 45.2271H21.6209C18.713 45.2271 16.3475 42.8616 16.3475 39.9536V39.0682C16.3475 38.8354 16.2009 38.6243 15.9736 38.5305L15.9417 38.5172C15.7134 38.4224 15.4596 38.4677 15.2952 38.6325L14.669 39.2587C12.6132 41.3145 9.26747 41.3145 7.21131 39.2587L5.96814 38.0156C4.97216 37.0196 4.42387 35.6954 4.42387 34.2867C4.42387 32.8781 4.97216 31.5539 5.96848 30.5579L6.59436 29.9317C6.75881 29.7672 6.80413 29.5135 6.70972 29.2855L6.6953 29.2512C6.6026 29.026 6.39146 28.8794 6.15868 28.8794H5.27325C2.36531 28.8794 -0.000183105 26.5139 -0.000183105 23.606V21.8481C-0.000183105 18.9402 2.36531 16.5747 5.27325 16.5747H6.15868C6.39146 16.5747 6.6026 16.4281 6.69633 16.2012L6.70937 16.1692C6.80447 15.9409 6.75916 15.6872 6.59436 15.5224L5.96848 14.8965C3.91232 12.8404 3.91232 9.49471 5.96848 7.43855L7.21131 6.19572C8.20763 5.19974 9.53183 4.65111 10.9401 4.65111C12.3488 4.65111 13.673 5.19974 14.6693 6.19572L15.2952 6.82159C15.46 6.98639 15.7137 7.03171 15.9417 6.93695L15.9733 6.92356C16.2009 6.82983 16.3475 6.61869 16.3475 6.38592V5.50049C16.3475 2.59254 18.7133 0.227051 21.6209 0.227051H23.3787C26.2867 0.227051 28.6522 2.59254 28.6522 5.50049V6.38592C28.6522 6.61869 28.7988 6.82983 29.0257 6.92356L29.0614 6.93832C29.2863 7.03171 29.54 6.98639 29.7044 6.82159L30.3307 6.19572C31.3266 5.19939 32.6508 4.65111 34.0595 4.65111C35.4678 4.65111 36.7923 5.19939 37.7883 6.19572L39.0312 7.43855C41.0873 9.49471 41.0873 12.8404 39.0312 14.8962L38.4053 15.5224C38.2405 15.6869 38.1952 15.9406 38.2899 16.1689L38.303 16.2005C38.397 16.4278 38.6082 16.5747 38.841 16.5747H39.7264C42.6343 16.5747 44.9998 18.9402 44.9998 21.8481Z"/>
</mask>
<path d="M30.859 28.6442C32.0157 26.9911 32.6951 24.981 32.6951 22.8149C32.6951 17.1934 28.1214 12.6196 22.4998 12.6196C16.8783 12.6196 12.3045 17.1934 12.3045 22.8149C12.3045 28.4369 16.8783 33.0103 22.4998 33.0103C24.6885 33.0103 26.7182 32.3167 28.3813 31.1385L35.0338 37.791C35.3768 38.134 35.8269 38.3057 36.2767 38.3057C36.7264 38.3057 37.1765 38.134 37.5195 37.791C38.2061 37.1044 38.2061 35.9913 37.5195 35.305L30.859 28.6442ZM15.8201 22.8149C15.8201 19.1318 18.8167 16.1353 22.4998 16.1353C26.183 16.1353 29.1795 19.1318 29.1795 22.8149C29.1795 26.4981 26.183 29.4946 22.4998 29.4946C18.8167 29.4946 15.8201 26.4981 15.8201 22.8149ZM44.9998 21.8481V23.606C44.9998 26.5139 42.6343 28.8794 39.7264 28.8794H38.841C38.6981 28.8794 38.5893 28.9333 38.5234 28.9786C37.7227 29.5279 36.6286 29.324 36.0796 28.523C35.5303 27.7227 35.7342 26.6282 36.5349 26.0793C37.2177 25.6113 38.0149 25.3638 38.841 25.3638H39.7264C40.6956 25.3638 41.4842 24.5752 41.4842 23.606V21.8481C41.4842 20.8789 40.6956 20.0903 39.7264 20.0903H38.841C37.1793 20.0903 35.693 19.0902 35.0538 17.5429L35.0431 17.5171C34.4008 15.9701 34.7444 14.2113 35.9193 13.0364L36.5455 12.4105C37.2308 11.7249 37.2308 10.6098 36.5455 9.92455L35.3023 8.68172C34.9703 8.34972 34.5288 8.16673 34.0595 8.16673C33.5898 8.16673 33.1483 8.34938 32.8167 8.68172L32.1904 9.30759C31.0156 10.4824 29.2568 10.8265 27.7097 10.1834L27.6836 10.1728C26.1366 9.53384 25.1365 8.0476 25.1365 6.38592V5.50049C25.1365 4.53129 24.3479 3.74268 23.3787 3.74268H21.6209C20.6517 3.74268 19.8631 4.53129 19.8631 5.50049V6.38592C19.8631 8.0476 18.863 9.53384 17.3156 10.1728L17.2933 10.182C15.7425 10.8261 13.984 10.4824 12.8092 9.30759L12.183 8.68137C11.8513 8.34938 11.4098 8.16673 10.9401 8.16673C10.4708 8.16673 10.0293 8.34938 9.69731 8.68137L8.45414 9.92455C7.76887 10.6098 7.76887 11.7249 8.45414 12.4105L9.08036 13.0364C10.2552 14.2113 10.5989 15.9701 9.95618 17.5175L9.94553 17.5436C9.30661 19.0902 7.82037 20.0903 6.15868 20.0903H5.27325C4.30405 20.0903 3.51544 20.8789 3.51544 21.8481V23.606C3.51544 24.5752 4.30405 25.3638 5.27325 25.3638H6.15868C7.82002 25.3638 9.30661 26.3639 9.94553 27.9112L9.95858 27.9421C10.5989 29.484 10.2552 31.2428 9.08036 32.4177L8.45414 33.0436C8.12215 33.3755 7.9395 33.8171 7.9395 34.2867C7.9395 34.7561 8.12215 35.1976 8.45414 35.5296L9.69731 36.7727C10.3826 37.458 11.4977 37.4583 12.1833 36.7727L12.8092 36.1465C13.9834 34.9727 15.7408 34.6283 17.2875 35.2697L17.3102 35.2789C18.8633 35.9203 19.8631 37.4068 19.8631 39.0682V39.9536C19.8631 40.9228 20.6517 41.7114 21.6209 41.7114H23.3787C24.3479 41.7114 25.1365 40.9228 25.1365 39.9536V39.0682C25.1365 38.2421 25.3841 37.4446 25.8524 36.7621C26.4013 35.9615 27.4955 35.7575 28.2961 36.3068C29.0968 36.8558 29.3007 37.95 28.7514 38.7506C28.7061 38.8165 28.6522 38.9254 28.6522 39.0682V39.9536C28.6522 42.8616 26.2867 45.2271 23.3787 45.2271H21.6209C18.713 45.2271 16.3475 42.8616 16.3475 39.9536V39.0682C16.3475 38.8354 16.2009 38.6243 15.9736 38.5305L15.9417 38.5172C15.7134 38.4224 15.4596 38.4677 15.2952 38.6325L14.669 39.2587C12.6132 41.3145 9.26747 41.3145 7.21131 39.2587L5.96814 38.0156C4.97216 37.0196 4.42387 35.6954 4.42387 34.2867C4.42387 32.8781 4.97216 31.5539 5.96848 30.5579L6.59436 29.9317C6.75881 29.7672 6.80413 29.5135 6.70972 29.2855L6.6953 29.2512C6.6026 29.026 6.39146 28.8794 6.15868 28.8794H5.27325C2.36531 28.8794 -0.000183105 26.5139 -0.000183105 23.606V21.8481C-0.000183105 18.9402 2.36531 16.5747 5.27325 16.5747H6.15868C6.39146 16.5747 6.6026 16.4281 6.69633 16.2012L6.70937 16.1692C6.80447 15.9409 6.75916 15.6872 6.59436 15.5224L5.96848 14.8965C3.91232 12.8404 3.91232 9.49471 5.96848 7.43855L7.21131 6.19572C8.20763 5.19974 9.53183 4.65111 10.9401 4.65111C12.3488 4.65111 13.673 5.19974 14.6693 6.19572L15.2952 6.82159C15.46 6.98639 15.7137 7.03171 15.9417 6.93695L15.9733 6.92356C16.2009 6.82983 16.3475 6.61869 16.3475 6.38592V5.50049C16.3475 2.59254 18.7133 0.227051 21.6209 0.227051H23.3787C26.2867 0.227051 28.6522 2.59254 28.6522 5.50049V6.38592C28.6522 6.61869 28.7988 6.82983 29.0257 6.92356L29.0614 6.93832C29.2863 7.03171 29.54 6.98639 29.7044 6.82159L30.3307 6.19572C31.3266 5.19939 32.6508 4.65111 34.0595 4.65111C35.4678 4.65111 36.7923 5.19939 37.7883 6.19572L39.0312 7.43855C41.0873 9.49471 41.0873 12.8404 39.0312 14.8962L38.4053 15.5224C38.2405 15.6869 38.1952 15.9406 38.2899 16.1689L38.303 16.2005C38.397 16.4278 38.6082 16.5747 38.841 16.5747H39.7264C42.6343 16.5747 44.9998 18.9402 44.9998 21.8481Z" fill="#60E1CB" stroke="#FCFCFE" stroke-width="1.2" mask="url(#path-1-inside-1)"/>
</g>
<defs>
<clipPath id="clip0">
<rect width="45" height="45" fill="white" transform="translate(-0.000183105 0.227051)"/>
</clipPath>
</defs>
</svg>
