<svg width="46" height="39" viewBox="0 0 46 39" fill="none" xmlns="http://www.w3.org/2000/svg">
<path d="M44.6072 4.07131C43.5625 1.41956 42.4375 0.535645 37.9375 0.535645C35.2053 0.535645 33.1161 2.62489 33.1161 5.35706C33.1161 6.80348 33.9197 8.16956 34.7233 9.61598C34.9643 10.1785 35.3661 10.741 35.6072 11.3035L35.9286 11.9463C36.6518 13.3927 37.1339 14.4374 37.1339 16.6071C37.1339 17.491 36.9732 18.4553 36.5714 19.8213V19.9016L33.9197 27.857L27.0329 8.34464C27.2659 8.31458 27.499 8.2832 27.7322 8.24989C29.0179 8.24989 30.0625 7.12489 30.0625 5.83914C30.0625 4.47306 29.0178 3.42839 27.6517 3.42839C27.5714 3.42839 27.5714 3.42839 27.491 3.42839C24.3571 3.91056 21.2232 3.91056 18.0892 3.42839C18.0089 3.42839 18.0089 3.42839 17.9285 3.42839C16.5624 3.42839 15.5177 4.47306 15.5177 5.83914C15.5178 7.12489 16.5625 8.24989 17.8483 8.24989C18.1175 8.29023 18.3895 8.32741 18.6625 8.36292L21.9464 16.6874L17.9286 28.4999L10.6958 8.2636C10.7228 8.25894 10.7498 8.25473 10.7767 8.24989C12.0625 8.16956 13.1071 7.12489 13.1071 5.83914C13.1071 4.47306 12.0624 3.42839 10.6963 3.42839C10.616 3.42839 10.616 3.42839 10.5356 3.42839C7.96416 3.91056 5.39274 3.91056 2.82133 3.42839C2.741 3.42839 2.741 3.42839 2.66058 3.42839C1.29467 3.42848 0.25 4.47314 0.25 5.83914C0.25 7.10239 1.25863 8.13221 2.51336 8.24409L12.3839 35.2499C12.9464 36.7766 14.1517 37.9016 15.7589 38.3035C16.1607 38.3838 16.4822 38.4642 16.8839 38.4642C18.8928 38.4642 20.8214 37.0981 21.4642 35.1696L26.0446 21.5088L30.866 35.1696C31.2677 36.2946 32.0713 37.0981 32.9552 37.4196C33.7588 37.741 34.6427 37.6606 35.4463 37.2588C36.491 36.8571 37.2946 35.9731 37.616 34.9285L43.5625 17.0891C44.9286 13.6338 45.25 10.5802 45.25 8.65164V7.36589C45.25 6.24098 45.0892 5.11598 44.6072 4.07131ZM17.9286 6.64272C17.4464 6.64272 17.125 6.32131 17.125 5.83914C17.125 5.43739 17.4464 5.03556 17.8483 5.03556C21.1429 5.59806 24.3572 5.59806 27.7322 5.03556C28.1339 5.03556 28.4554 5.4373 28.4554 5.83914C28.4554 6.32131 28.134 6.64272 27.6518 6.64272C27.5715 6.64272 27.5715 6.64272 27.4911 6.64272C27.013 6.71629 26.5349 6.7772 26.0568 6.82835C25.9768 6.81183 25.8923 6.80348 25.8036 6.80348C23.6339 7.04456 21.4643 7.04456 19.2947 6.80348C19.2932 6.80348 19.2916 6.80365 19.2901 6.80365C18.8898 6.75777 18.4896 6.70434 18.0893 6.64272C18.0089 6.64272 18.0089 6.64272 17.9286 6.64272ZM1.85717 5.83914C1.85717 5.43739 2.17858 5.03556 2.58042 5.03556C5.31259 5.59806 8.04467 5.59806 10.7768 5.03556C11.1786 5.03556 11.5001 5.4373 11.5001 5.83914C11.5001 6.32131 11.1787 6.64272 10.6965 6.64272C10.6162 6.64272 10.6162 6.64272 10.5358 6.64272C10.2033 6.70504 9.87077 6.759 9.53828 6.80523C9.52264 6.80453 9.50699 6.80348 9.49108 6.80348C9.35687 6.82492 9.22223 6.8447 9.08731 6.86333C7.21173 7.08297 5.33623 7.04482 3.46064 6.75144C3.40826 6.74186 3.35588 6.73316 3.30358 6.72314C3.29655 6.72314 3.28952 6.72376 3.28249 6.72385C3.12877 6.69845 2.97514 6.67164 2.82142 6.64281C2.74108 6.64281 2.74108 6.64281 2.66066 6.64281C2.17858 6.64272 1.85717 6.32131 1.85717 5.83914ZM43.5625 8.73206C43.5625 10.4999 43.3214 13.3928 42.0358 16.6071L36.009 34.4463C35.7679 35.0891 35.2858 35.5713 34.6429 35.8124C34.2412 35.9731 33.8393 36.0535 33.4376 35.8927C32.9554 35.732 32.4733 35.2499 32.2323 34.607L26.6073 18.857C26.5269 18.5356 26.2055 18.2945 25.884 18.2945C25.5626 18.2945 25.2412 18.5356 25.1608 18.857L19.9375 34.6071C19.4553 36.1338 17.7678 37.0981 16.1608 36.6963C15.1161 36.4552 14.3125 35.7321 13.9108 34.6874L4.3552 8.51005C5.12969 8.59873 5.90409 8.65173 6.67858 8.65173C7.48322 8.65173 8.28786 8.59486 9.09241 8.49976L17.2857 31.2321C17.366 31.5535 17.6874 31.7946 18.0089 31.7946C18.3303 31.7946 18.6517 31.5535 18.7322 31.2321L23.5536 16.9285C23.6339 16.7677 23.6339 16.5267 23.5536 16.366L20.5262 8.55848C21.274 8.61719 22.0203 8.65173 22.75 8.65173C23.6183 8.65173 24.5105 8.60365 25.413 8.52244L33.2767 30.5892C33.3571 30.9106 33.6785 31.1517 34 31.1517C34.3215 31.1517 34.6428 30.9106 34.7233 30.5892L38.0983 20.5446C38.1786 20.4642 38.1786 20.4642 38.1786 20.3838C38.6608 18.8571 38.8214 17.6516 38.8214 16.6874C38.8214 14.116 38.1786 12.8302 37.4553 11.3035L37.1339 10.6606C36.8125 10.0981 36.4911 9.45531 36.1697 8.89281C35.4464 7.68739 34.8036 6.48206 34.8036 5.43739C34.8036 3.34814 36.4911 2.22314 38.0178 2.22314C42.1964 2.22314 42.5178 3.02673 43.0803 4.71423C43.4017 5.51781 43.5625 6.40173 43.5625 7.36598V8.73206Z" fill="#60E1CB"/>
</svg>
