<svg width="45" height="44" viewBox="0 0 45 44" fill="none" xmlns="http://www.w3.org/2000/svg">
<g clip-path="url(#clip0)">
<path d="M39.8911 41.3754H5.10851C2.29177 41.3754 -0.000183105 39.1344 -0.000183105 36.3803V7.54595C-0.000183105 4.7918 2.29177 2.55078 5.10851 2.55078H39.8911C42.7079 2.55078 44.9998 4.7918 44.9998 7.54595V36.3803C44.9998 39.1344 42.7079 41.3754 39.8911 41.3754ZM5.10851 4.0387C3.13076 4.0387 1.52156 5.61215 1.52156 7.54595V36.3803C1.52156 38.3141 3.13076 39.8875 5.10851 39.8875H39.8911C41.8689 39.8875 43.4781 38.3141 43.4781 36.3803V7.54595C43.4781 5.61215 41.8689 4.0387 39.8911 4.0387H5.10851Z" fill="#60E1CB"/>
<path d="M38.1325 30.0172H26.1764C25.7561 30.0172 25.4155 29.6843 25.4155 29.2733C25.4155 28.8627 25.7561 28.5293 26.1764 28.5293H38.1325C38.5524 28.5293 38.8934 28.8627 38.8934 29.2733C38.8934 29.6843 38.5528 30.0172 38.1325 30.0172Z" fill="#60E1CB"/>
<path d="M38.1325 35.3959H26.1764C25.7561 35.3959 25.4155 35.0629 25.4155 34.6519C25.4155 34.2413 25.7561 33.908 26.1764 33.908H38.1325C38.5524 33.908 38.8934 34.2413 38.8934 34.6519C38.8934 35.0629 38.5528 35.3959 38.1325 35.3959Z" fill="#60E1CB"/>
<path d="M38.1325 19.2597H26.1764C25.7561 19.2597 25.4155 18.9267 25.4155 18.5157C25.4155 18.1051 25.7561 17.7717 26.1764 17.7717H38.1325C38.5524 17.7717 38.8934 18.1051 38.8934 18.5157C38.8934 18.9267 38.5528 19.2597 38.1325 19.2597Z" fill="#60E1CB"/>
<path d="M38.1325 24.6383H26.1764C25.7561 24.6383 25.4155 24.3054 25.4155 23.8944C25.4155 23.4838 25.7561 23.1504 26.1764 23.1504H38.1325C38.5524 23.1504 38.8934 23.4838 38.8934 23.8944C38.8934 24.3054 38.5528 24.6383 38.1325 24.6383Z" fill="#60E1CB"/>
<path d="M44.2389 12.5126H0.760686C0.34034 12.5126 -0.000183105 12.1796 -0.000183105 11.7686C-0.000183105 11.3576 0.34034 11.0247 0.760686 11.0247H44.2389C44.6593 11.0247 44.9998 11.3576 44.9998 11.7686C44.9998 12.1796 44.6593 12.5126 44.2389 12.5126Z" fill="#60E1CB"/>
<path d="M10.9688 9.86079C9.66319 9.86079 8.60086 8.82248 8.60086 7.54587C8.60086 6.26926 9.66319 5.23096 10.9688 5.23096C12.2744 5.23096 13.3363 6.26926 13.3363 7.54587C13.3363 8.82248 12.2744 9.86079 10.9688 9.86079ZM10.9688 6.71888C10.5022 6.71888 10.1226 7.09003 10.1226 7.54587C10.1226 8.00172 10.5022 8.37287 10.9688 8.37287C11.435 8.37287 11.8146 8.00172 11.8146 7.54587C11.8146 7.09003 11.435 6.71888 10.9688 6.71888Z" fill="#60E1CB"/>
<path d="M5.48639 9.86079C4.1812 9.86079 3.11887 8.82248 3.11887 7.54587C3.11887 6.26926 4.1812 5.23096 5.48639 5.23096C6.79202 5.23096 7.85435 6.26926 7.85435 7.54587C7.85435 8.82248 6.79202 9.86079 5.48639 9.86079ZM5.48639 6.71888C5.02019 6.71888 4.64061 7.09003 4.64061 7.54587C4.64061 8.00172 5.02019 8.37287 5.48639 8.37287C5.95302 8.37287 6.33261 8.00172 6.33261 7.54587C6.33261 7.09003 5.95302 6.71888 5.48639 6.71888Z" fill="#60E1CB"/>
<path d="M16.4506 9.86079C15.1449 9.86079 14.083 8.82248 14.083 7.54587C14.083 6.26926 15.1449 5.23096 16.4506 5.23096C17.7562 5.23096 18.8185 6.26926 18.8185 7.54587C18.8185 8.82248 17.7562 9.86079 16.4506 9.86079ZM16.4506 6.71888C15.9839 6.71888 15.6048 7.09003 15.6048 7.54587C15.6048 8.00172 15.9844 8.37287 16.4506 8.37287C16.9172 8.37287 17.2968 8.00172 17.2968 7.54587C17.2968 7.09003 16.9172 6.71888 16.4506 6.71888Z" fill="#60E1CB"/>
<path d="M20.4346 35.396H6.63028C6.20994 35.396 5.86942 35.063 5.86942 34.652V18.5157C5.86942 18.1051 6.20994 17.7717 6.63028 17.7717H20.4346C20.855 17.7717 21.1955 18.1051 21.1955 18.5157V34.652C21.1955 35.063 20.855 35.396 20.4346 35.396ZM7.39115 33.9081H19.6738V19.2597H7.39115V33.9081Z" fill="#60E1CB"/>
</g>
<defs>
<clipPath id="clip0">
<rect width="45" height="44" fill="white" transform="translate(-0.000183105)"/>
</clipPath>
</defs>
</svg>
